<?xml version="1.0" encoding="UTF-8"?>
<svg width="217px" height="35px" viewBox="0 0 217 35" version="1.1" xmlns="http://www.w3.org/2000/svg" xmlns:xlink="http://www.w3.org/1999/xlink">
    <!-- Generator: Sketch 48 (47235) - http://www.bohemiancoding.com/sketch -->
    <title>logo_text</title>
    <desc>Created with Sketch.</desc>
    <defs></defs>
    <g id="sect_navigation" stroke="none" stroke-width="1" fill="none" fill-rule="evenodd" transform="translate(-376.000000, -33.000000)">
        <g id="logo_text" transform="translate(376.000000, 33.000000)" fill="#131313">
            <path d="M53.8109335,12.6453643 L50.8427176,12.6453643 L50.8427176,34.0633599 L53.8109335,34.0633599 C59.7014797,34.0633599 64.4974665,29.3476727 64.4974665,23.374915 C64.4974665,17.5235626 59.7014797,12.6453643 53.8109335,12.6453643" id="Fill-3"></path>
            <polygon id="Fill-5" points="82.5032088 12.6453643 67.4240987 12.6453643 67.4240987 34.1025537 74.7801119 23.6980251 82.4621031 34.3472762 83.0710414 33.9008489 75.2265392 23.0087872"></polygon>
            <polygon id="Fill-7" points="86.3644705 12.6453643 86.3644705 34.0633599 101.846034 34.0633599 101.846034 33.2919106 86.9323031 33.2919106 94.1649991 23.3338093 99.8949463 23.3338093 99.8949463 22.5623599 94.6936379 22.5623599 101.846034 12.6453643"></polygon>
            <polygon id="Fill-9" points="118.548821 12.1163432 102.700173 34.0639335 118.548821 34.0639335"></polygon>
            <polygon id="Fill-11" points="136.47455 31.7043692 122.330356 12.1160564 122.330356 34.0636467 152.282092 34.0636467 136.47455 12.1160564"></polygon>
            <polygon id="Fill-13" points="182.700617 33.291815 167.80696 33.291815 167.80696 5.53397797 167.035511 5.53397797 167.035511 34.0632643 182.700617 34.0632643"></polygon>
            <polygon id="Fill-15" points="199.588761 34.0635511 199.588761 12.1159608 183.738202 34.0635511"></polygon>
            <path d="M3.80170617,12.2676696 C3.80170617,11.8872026 4.11334493,11.5803436 4.48903216,11.5803436 L9.8662348,11.5803436 C10.2467018,11.5803436 10.5535608,11.8872026 10.5535608,12.2676696 L10.5535608,12.4368722 C10.5535608,12.8144714 10.2467018,13.1261101 9.8662348,13.1261101 L9.85667533,13.1261101 L9.85667533,26.6154802 C9.85667533,28.0742555 8.6636533,29.2682335 7.20487797,29.2682335 L7.14943304,29.2682335 C5.69352555,29.2682335 4.49954758,28.0742555 4.49954758,26.6154802 L4.49954758,13.1261101 L4.48903216,13.1261101 C4.11334493,13.1261101 3.80170617,12.8144714 3.80170617,12.4368722 L3.80170617,12.2676696 Z M18.2068736,19.8387709 C18.2068736,13.7360044 14.3620542,8.50888546 8.92462687,6.48418943 C9.20471938,6.8283304 9.39399692,7.24990308 9.39399692,7.7288326 C9.39399692,8.83390749 8.50114229,9.72962996 7.39511145,9.72962996 C6.28908062,9.72962996 5.39335815,8.83390749 5.39335815,7.7288326 C5.39335815,6.84840529 5.96788238,6.1247533 6.75558282,5.85517621 C5.84934493,5.67354626 4.907737,5.5750837 3.94318634,5.5750837 L-9.55947137e-05,5.5750837 L-9.55947137e-05,34.1024581 L3.94318634,34.1024581 C11.8679881,34.1024581 18.2068736,27.7635727 18.2068736,19.8387709 Z" id="Fill-19"></path>
            <path d="M216.494878,27.0716581 C216.494878,24.7563542 215.315239,22.7240106 213.568723,21.4239225 C214.097362,20.5693057 214.461578,19.5550458 214.461578,18.4165128 C214.461578,15.2054863 211.941701,12.6454599 208.689569,12.6454599 L203.367811,12.6454599 L203.367811,34.0634555 L209.463886,34.0634555 C213.367019,34.0634555 216.494878,30.8916229 216.494878,27.0716581" id="Fill-17"></path>
            <path d="M11.6800489,4.56761101 C12.6780577,4.56761101 13.4896568,3.76174758 13.4896568,2.76565066 C13.4896568,1.7666859 12.6780577,0.956042731 11.6800489,0.956042731 C10.6858639,0.956042731 9.8752207,1.7666859 9.8752207,2.76565066 C9.8752207,3.76174758 10.6858639,4.56761101 11.6800489,4.56761101" id="Fill-22"></path>
            <path d="M7.91036696,4.3707815 C8.40937137,4.3707815 8.81278106,3.96545991 8.81278106,3.46645551 C8.81278106,2.96649515 8.40937137,2.56117357 7.91036696,2.56117357 C7.41136256,2.56117357 7.00795286,2.96649515 7.00795286,3.46645551 C7.00795286,3.96545991 7.41136256,4.3707815 7.91036696,4.3707815" id="Fill-25"></path>
            <polygon id="Fill-1" points="16.4206863 34.0636467 32.2693339 34.0636467 32.2693339 12.1160564"></polygon>
            <polygon id="Fill-2" points="34.5457308 12.6451731 46.2904974 28.9842216 46.2904974 34.0641247 47.0638586 34.0641247 47.0638586 12.6451731"></polygon>
        </g>
    </g>
</svg>